<svg width="20" height="20" viewBox="0 0 20 20" fill="none" xmlns="http://www.w3.org/2000/svg">
<path fill-rule="evenodd" clip-rule="evenodd" d="M9.75 0C4.36312 0 0 4.47348 0 9.99661C0 14.4201 2.79094 18.1564 6.66656 19.4809C7.15406 19.5684 7.33687 19.2685 7.33687 19.0061C7.33687 18.7686 7.32469 17.9814 7.32469 17.1442C4.875 17.6065 4.24125 16.5319 4.04625 15.9696C3.93656 15.6822 3.46125 14.795 3.04688 14.5576C2.70563 14.3701 2.21813 13.9078 3.03469 13.8953C3.8025 13.8828 4.35094 14.62 4.53375 14.9199C5.41125 16.4319 6.81281 16.0071 7.37344 15.7447C7.45875 15.0949 7.71469 14.6575 7.995 14.4076C5.82562 14.1577 3.55875 13.2955 3.55875 9.47179C3.55875 8.38466 3.93656 7.48496 4.55813 6.7852C4.46063 6.53529 4.11937 5.51063 4.65562 4.1361C4.65562 4.1361 5.47219 3.87369 7.33687 5.16075C8.11687 4.93583 8.94563 4.82337 9.77438 4.82337C10.6031 4.82337 11.4319 4.93583 12.2119 5.16075C14.0766 3.86119 14.8931 4.1361 14.8931 4.1361C15.4294 5.51063 15.0881 6.53529 14.9906 6.7852C15.6122 7.48496 15.99 8.37216 15.99 9.47179C15.99 13.308 13.7109 14.1577 11.5416 14.4076C11.895 14.72 12.1997 15.3198 12.1997 16.257C12.1997 17.594 12.1875 18.6687 12.1875 19.0061C12.1875 19.2685 12.3703 19.5809 12.8578 19.4809C16.7091 18.1564 19.5 14.4076 19.5 9.99661C19.5 4.47348 15.1369 0 9.75 0Z" fill="#1B1F23" fill-opacity="0.2"/>
</svg>
