<svg width="21" height="20" viewBox="0 0 21 20" fill="none" xmlns="http://www.w3.org/2000/svg">
<path d="M7.05731 4.04095C6.32929 4.40163 5.69444 4.88071 5.16464 5.44355C5.42857 5.44863 5.69403 5.43681 5.95968 5.40695C6.26634 4.91281 6.63372 4.45338 7.05731 4.04095ZM7.68484 3.76874C8.25024 3.74207 8.81216 3.78059 9.35953 3.88359C9.54841 3.71431 9.72476 3.53329 9.88931 3.34399C9.15277 3.35903 8.4088 3.4969 7.68484 3.76874ZM7.33759 4.38253C7.04548 4.66983 6.78276 4.98131 6.55013 5.3118C6.90309 5.23635 7.25408 5.12759 7.59927 4.98578L7.33759 4.38253ZM7.74713 4.2064L8.00604 4.80326C8.32377 4.64526 8.62156 4.46155 8.89927 4.25787C8.51991 4.20851 8.13443 4.19042 7.74713 4.2064ZM10.4552 3.35669C10.2798 3.58303 10.0891 3.79938 9.88342 4.00257C10.8918 4.2709 11.8354 4.7558 12.6411 5.42739C12.94 5.06565 13.2103 4.68344 13.4514 4.28473C12.5442 3.74569 11.5157 3.42544 10.4552 3.35669ZM4.79316 5.87196C4.13381 6.70411 3.68271 7.68075 3.47409 8.71592C3.93645 8.80528 4.40665 8.86153 4.88082 8.8817C4.92784 7.83116 5.20872 6.80509 5.69193 5.87844C5.39105 5.89716 5.09054 5.89452 4.79316 5.87196ZM9.48894 4.36047C9.09643 4.68939 8.66005 4.97565 8.18289 5.21097L9.37762 7.96524C10.5358 7.4162 11.5355 6.66054 12.3508 5.76288C11.5223 5.07236 10.5378 4.59253 9.48894 4.36047ZM6.22346 5.82251C5.68434 6.75542 5.37216 7.80819 5.32337 8.89018C6.54184 8.88513 7.77881 8.64579 8.9703 8.14648L7.77668 5.39477C7.26737 5.60473 6.74624 5.74652 6.22346 5.82251ZM13.8264 4.52601C13.5731 4.94397 13.2884 5.34418 12.9744 5.72319C13.6495 6.36193 14.2085 7.14327 14.6007 8.04733C14.6817 8.23414 14.7544 8.42239 14.8183 8.61199C15.269 8.14812 15.6829 7.65499 16.0579 7.13579C15.5377 6.05053 14.7583 5.16707 13.8264 4.52601ZM3.40028 9.15491C3.25108 10.2744 3.38372 11.4446 3.84017 12.5601C4.47585 12.6299 5.11911 12.655 5.76491 12.6317C5.65432 12.4321 5.55245 12.226 5.45981 12.0124C5.08038 11.1377 4.89181 10.2274 4.87527 9.32753C4.37819 9.30683 3.88508 9.24826 3.40028 9.15491ZM12.6823 6.05796C11.8254 7.00336 10.7739 7.79849 9.55503 8.37423L10.8701 11.4058C12.2292 10.7773 13.4332 9.94725 14.4627 8.96515C14.3879 8.71609 14.2977 8.46913 14.1917 8.22473C13.8265 7.38291 13.3079 6.65462 12.6823 6.05796ZM5.31727 9.33473C5.33563 10.1727 5.51391 11.0203 5.86752 11.8355C5.98383 12.1037 6.11588 12.36 6.26182 12.6045C7.67255 12.5003 9.08947 12.1682 10.4627 11.5871L9.14771 8.55547C7.89708 9.08032 6.59736 9.3311 5.31727 9.33473ZM16.2614 7.60485C15.8667 8.13035 15.4333 8.62984 14.9622 9.09777C15.27 10.288 15.2531 11.5083 14.9565 12.6521C15.5362 12.2327 16.0839 11.7802 16.5964 11.2969C16.8296 10.0958 16.7351 8.81985 16.2614 7.60485ZM4.05241 13.0283C4.63495 14.192 5.51955 15.1172 6.56794 15.7503C7.25804 15.695 7.94863 15.5959 8.63704 15.4511C7.59858 14.8981 6.69284 14.089 6.02585 13.0652C5.36441 13.1008 4.70492 13.0876 4.05241 13.0283ZM14.5902 9.45502C13.5641 10.3998 12.378 11.2022 11.048 11.8161L12.1252 14.2994C12.918 13.9373 13.6692 13.5222 14.3755 13.056C14.3757 13.0554 14.376 13.0548 14.3762 13.0542C14.7685 11.9163 14.857 10.6733 14.5902 9.45502ZM6.53698 13.0288C7.251 14.0411 8.22106 14.8123 9.31831 15.2922C10.1259 15.0862 10.9272 14.8154 11.7174 14.4794L10.6402 11.9961C9.29885 12.5641 7.9162 12.9026 6.53698 13.0288ZM16.3948 12.0784C15.8739 12.5314 15.3224 12.9558 14.7403 13.3473C14.3705 14.3461 13.7785 15.2639 12.9986 16.0223C14.6724 15.1947 15.8575 13.7455 16.3948 12.0784ZM7.27826 16.124C8.84126 16.8291 10.6687 16.9344 12.38 16.2906C11.3125 16.3414 10.2573 16.1547 9.28925 15.7574C8.62132 15.9217 7.94989 16.0431 7.27826 16.124ZM14.0828 13.7676C13.5152 14.1125 12.9217 14.4275 12.3032 14.7097L12.7223 15.6759C13.289 15.1183 13.7468 14.4708 14.0828 13.7676ZM10.032 15.5582C10.7628 15.7842 11.5343 15.8869 12.3139 15.8546L11.8948 14.8884C11.2797 15.15 10.6583 15.3737 10.032 15.5582Z" fill="#1B1F23" fill-opacity="0.2"/>
<path d="M10.0306 0C6.60775 0 3.5838 1.71741 1.77344 4.33686L3.7127 5.45695C5.13086 3.50192 7.43243 2.22903 10.0306 2.22903C12.6288 2.22903 14.9304 3.50192 16.3485 5.45695L18.2878 4.33686C16.4774 1.71741 13.4535 0 10.0306 0Z" fill="#1B1F23" fill-opacity="0.2"/>
<path d="M0.71747 6.30261C0.255188 7.45539 0 8.71331 0 10.0307C0 15.191 3.90298 19.4452 8.91613 20V17.7515C5.13727 17.2099 2.22903 13.9586 2.22903 10.0307C2.22903 9.11918 2.38575 8.24441 2.67345 7.43106L0.71747 6.30261Z" fill="#1B1F23" fill-opacity="0.2"/>
<path d="M19.3437 6.30261L17.3877 7.43106C17.6754 8.24441 17.8321 9.11918 17.8321 10.0307C17.8321 13.9586 14.9239 17.2099 11.145 17.7515V20C16.1582 19.4452 20.0611 15.191 20.0612 10.0307C20.0612 8.71331 19.806 7.45539 19.3437 6.30261Z" fill="#1B1F23" fill-opacity="0.2"/>
</svg>
