<svg xmlns="http://www.w3.org/2000/svg" width="62" height="62" fill="none" viewBox="0 0 62 62">
    <path fill="#fff" fill-rule="evenodd" d="M31 37.458a7.74 7.74 0 0 0 7.75-7.75v-15.5A7.74 7.74 0 0 0 31 6.458a7.74 7.74 0 0 0-7.75 7.75v15.5a7.74 7.74 0 0 0 7.75 7.75zm-2.583-23.25A2.591 2.591 0 0 1 31 11.625a2.59 2.59 0 0 1 2.583 2.583v15.5A2.59 2.59 0 0 1 31 32.292a2.591 2.591 0 0 1-2.583-2.584v-15.5zM31 42.625c7.13 0 12.917-5.787 12.917-12.917h5.166c0 9.12-6.742 16.611-15.5 17.877v7.957h-5.166v-7.957c-8.758-1.266-15.5-8.758-15.5-17.877h5.166c0 7.13 5.787 12.917 12.917 12.917z" clip-rule="evenodd"/>
</svg>
