<?xml version="1.0" encoding="UTF-8" standalone="no"?>
<svg
   xmlns:dc="http://purl.org/dc/elements/1.1/"
   xmlns:cc="http://creativecommons.org/ns#"
   xmlns:rdf="http://www.w3.org/1999/02/22-rdf-syntax-ns#"
   xmlns:svg="http://www.w3.org/2000/svg"
   xmlns="http://www.w3.org/2000/svg"
   xmlns:sodipodi="http://sodipodi.sourceforge.net/DTD/sodipodi-0.dtd"
   xmlns:inkscape="http://www.inkscape.org/namespaces/inkscape"
   width="25"
   height="20"
   viewBox="0 0 25 20"
   fill="none"
   version="1.1"
   id="svg4"
   sodipodi:docname="phabricator-blue.svg"
   inkscape:version="0.92.3 (2405546, 2018-03-11)">
  <metadata
     id="metadata10">
    <rdf:RDF>
      <cc:Work
         rdf:about="">
        <dc:format>image/svg+xml</dc:format>
        <dc:type
           rdf:resource="http://purl.org/dc/dcmitype/StillImage" />
        <dc:title></dc:title>
      </cc:Work>
    </rdf:RDF>
  </metadata>
  <defs
     id="defs8" />
  <sodipodi:namedview
     pagecolor="#ffffff"
     bordercolor="#666666"
     borderopacity="1"
     objecttolerance="10"
     gridtolerance="10"
     guidetolerance="10"
     inkscape:pageopacity="0"
     inkscape:pageshadow="2"
     inkscape:window-width="982"
     inkscape:window-height="619"
     id="namedview6"
     showgrid="false"
     inkscape:zoom="11.8"
     inkscape:cx="6.8644068"
     inkscape:cy="10"
     inkscape:window-x="0"
     inkscape:window-y="0"
     inkscape:window-maximized="0"
     inkscape:current-layer="svg4" />
  <path
     d="M16.2538 10.0588L16.2488 9.39868C16.2488 9.39868 17.3407 8.39326 17.3105 8.32217L16.8325 7.30659C16.8023 7.2355 15.3481 7.2812 15.3481 7.2812L14.8751 6.80896C14.8751 6.80896 14.8852 5.36176 14.8147 5.33129L13.8033 4.86413C13.7329 4.83366 12.7618 5.93048 12.7618 5.93048L12.1026 5.92033C12.1026 5.92033 11.0711 4.83366 11.0007 4.86413L9.99432 5.28559C9.92387 5.31098 10.0044 6.7531 10.0044 6.7531L9.54649 7.21519C9.54649 7.21519 8.07722 7.16949 8.05206 7.2355L7.64449 8.24092C7.6143 8.31201 8.70115 9.30728 8.70115 9.30728L8.70619 9.96233C8.70619 9.96233 7.6143 10.9677 7.64449 11.0388L8.1225 12.0544C8.15269 12.1255 9.60687 12.0798 9.60687 12.0798L10.0799 12.5521C10.0799 12.5521 10.0698 14.1668 10.1402 14.1922L11.1516 14.6137C11.2221 14.6441 12.1932 13.4204 12.1932 13.4204L12.8523 13.4305C12.8523 13.4305 13.8839 14.6391 13.9493 14.6137L14.9556 14.2328C15.0261 14.2024 14.9456 12.6028 14.9456 12.6028L15.4034 12.1407C15.4034 12.1407 16.8727 12.1864 16.8979 12.1154L17.3054 11.1099C17.3407 11.0541 16.2538 10.0588 16.2538 10.0588ZM13.9946 9.61703C14.0298 10.4853 13.3505 11.2216 12.48 11.2623C11.6095 11.3029 10.8648 10.6275 10.8296 9.75921C10.7944 8.89089 11.4736 8.1546 12.3441 8.11905C13.2146 8.07843 13.9593 8.75379 13.9946 9.61703ZM24.1184 7.69251L19.2376 2.76696L19.2326 2.77204C15.4538 -0.950058 9.40057 -0.924668 5.65695 2.85328C3.09578 5.443 4.25812 4.27001 0.84156 7.69251C-0.28052 8.82488 -0.28052 10.6732 0.84156 11.8056C4.35875 15.3297 3.17629 14.1414 5.74249 16.7312L5.74752 16.7261C9.52636 20.4482 15.5796 20.4279 19.3232 16.6448C21.8894 14.0602 20.727 15.2281 24.1184 11.8056C25.2405 10.6732 25.2405 8.82488 24.1184 7.69251ZM7.06584 15.223C4.06691 12.2017 4.06691 7.30151 7.06584 4.28017C10.0597 1.25375 14.9154 1.25882 17.9143 4.28017C20.9082 7.30151 20.9132 12.2017 17.9143 15.2281C14.9154 18.2494 10.0648 18.2444 7.06584 15.223Z"
     fill="#1B1F23"
     fill-opacity="0.2"
     id="path2"
     style="fill:#3366cc;fill-opacity:1" />
</svg>
