<svg width="18" height="18" viewBox="0 0 18 18" fill="none" xmlns="http://www.w3.org/2000/svg">
<path fill-rule="evenodd" clip-rule="evenodd" d="M11.7185 11.0671H12.4427L17.0169 15.6504L15.651 17.0163L11.0677 12.4421V11.7179L10.8202 11.4613C9.77521 12.3596 8.41854 12.9004 6.94271 12.9004C3.65188 12.9004 0.984375 10.2329 0.984375 6.9421C0.984375 3.65126 3.65188 0.983765 6.94271 0.983765C10.2335 0.983765 12.901 3.65126 12.901 6.9421C12.901 8.41793 12.3602 9.7746 11.4619 10.8196L11.7185 11.0671ZM2.81771 6.9421C2.81771 9.2246 4.66021 11.0671 6.94271 11.0671C9.22521 11.0671 11.0677 9.2246 11.0677 6.9421C11.0677 4.6596 9.22521 2.8171 6.94271 2.8171C4.66021 2.8171 2.81771 4.6596 2.81771 6.9421Z" fill="black" fill-opacity="0.5"/>
</svg>
