<svg width="17" height="18" viewBox="0 0 17 18" fill="none" xmlns="http://www.w3.org/2000/svg">
<path fill-rule="evenodd" clip-rule="evenodd" d="M9.69733 6.88834L16.7237 13.9147C17.0332 14.2242 17.0332 14.7117 16.7237 15.0058L14.9439 16.7856C14.6421 17.0874 14.1546 17.0874 13.8528 16.7856L6.80322 9.73602C5.00794 10.4092 2.91088 10.0301 1.47156 8.59076C-0.308238 6.8187 -0.470741 4.04066 0.968575 2.07515L3.93233 5.0389L5.03116 3.9478L2.05967 0.968575C4.03292 -0.470741 6.80322 -0.308238 8.58302 1.47156C10.0455 2.94183 10.417 5.07759 9.69733 6.88834ZM7.08173 7.83245L14.4021 15.1528L15.0831 14.4641L7.77044 7.15148C8.1264 6.69493 8.35855 6.1842 8.45141 5.63479C8.64486 4.55917 8.32759 3.40617 7.49186 2.57044C6.75673 1.84304 5.78945 1.50256 4.8299 1.55672L7.22102 3.94785L3.94 7.22887L1.54888 4.83775C1.49471 5.79729 1.8352 6.77231 2.57033 7.49971C3.37511 8.30448 4.48168 8.62175 5.53408 8.46699C6.0835 8.3896 6.6097 8.18067 7.08173 7.83245Z" fill="#222222" fill-opacity="0.5"/>
</svg>
