<svg width="21" height="17" viewBox="0 0 21 17" fill="none" xmlns="http://www.w3.org/2000/svg">
<path d="M20.7778 2.01256C20.0133 2.35423 19.1917 2.58434 18.3295 2.68806C19.2099 2.15725 19.8861 1.31614 20.2038 0.313782C19.3805 0.805373 18.468 1.16274 17.4966 1.35536C16.7201 0.521226 15.611 0 14.3851 0C11.633 0 9.61059 2.58521 10.2322 5.26892C6.69044 5.09024 3.54954 3.38187 1.44665 0.785326C0.329847 2.71421 0.867472 5.23754 2.76518 6.51533C2.06739 6.49267 1.40943 6.30004 0.83544 5.97841C0.78869 7.96657 2.20418 9.8266 4.25425 10.2406C3.65429 10.4045 2.99719 10.4428 2.32884 10.3138C2.8708 12.0187 4.44471 13.259 6.31125 13.2939C4.51917 14.7085 2.26131 15.3404 0 15.072C1.88645 16.2896 4.12785 17 6.53461 17C14.4492 17 18.9208 10.2703 18.6507 4.23431C19.4835 3.62854 20.2064 2.87285 20.7778 2.01256Z" fill="#1B1F23" fill-opacity="0.2"/>
</svg>
