<svg width="18" height="18" viewBox="0 0 18 18" fill="none" xmlns="http://www.w3.org/2000/svg">
<path fill-rule="evenodd" clip-rule="evenodd" d="M9 0C6.51375 0 4.5 2.01375 4.5 4.5C4.5 6.98625 6.51375 9 9 9C11.4862 9 13.5 6.98625 13.5 4.5C13.5 2.01375 11.4862 0 9 0ZM11.25 4.5C11.25 3.2625 10.2375 2.25 9 2.25C7.7625 2.25 6.75 3.2625 6.75 4.5C6.75 5.7375 7.7625 6.75 9 6.75C10.2375 6.75 11.25 5.7375 11.25 4.5ZM15.75 14.625C15.525 13.8263 12.0375 12.375 9 12.375C5.9625 12.375 2.475 13.8263 2.25 14.6362V15.75H15.75V14.625ZM0 14.625C0 11.6325 5.99625 10.125 9 10.125C12.0037 10.125 18 11.6325 18 14.625V18H0V14.625Z" fill="#222222"/>
</svg>
