<svg width="26" height="16" viewBox="0 0 26 16" fill="none" xmlns="http://www.w3.org/2000/svg">
<path fill-rule="evenodd" clip-rule="evenodd" d="M26 0.268889C26 0.36 25.9703 0.442222 25.9131 0.517778C25.8537 0.591111 25.7919 0.628889 25.721 0.628889C25.1516 0.682222 24.6828 0.86 24.3215 1.16444C23.958 1.46667 23.5852 2.04667 23.1988 2.9L17.299 15.82C17.2602 15.94 17.1527 16 16.9743 16C16.8348 16 16.7274 15.94 16.6496 15.82L13.3407 9.09556L9.53562 15.82C9.45787 15.94 9.3504 16 9.21091 16C9.04169 16 8.92964 15.94 8.87476 15.82L3.07792 2.9C2.71662 2.09778 2.33474 1.53778 1.93228 1.22C1.5321 0.902223 0.971856 0.704444 0.256113 0.628889C0.194371 0.628889 0.134916 0.597778 0.0823219 0.533333C0.0274407 0.471111 0 0.397778 0 0.315556C0 0.104444 0.0617414 0 0.185224 0C0.702023 0 1.24169 0.0222221 1.80651 0.0666665C2.33017 0.113333 2.8241 0.135556 3.28602 0.135556C3.75708 0.135556 4.31275 0.113333 4.95303 0.0666665C5.62304 0.0222221 6.21759 0 6.73439 0C6.85787 0 6.91961 0.104444 6.91961 0.315556C6.91961 0.524444 6.88074 0.628889 6.80528 0.628889C6.28848 0.666667 5.88144 0.795555 5.58417 1.01111C5.2869 1.22889 5.13826 1.51333 5.13826 1.86667C5.13826 2.04667 5.2 2.27111 5.32348 2.54L10.1142 13.0533L12.8331 8.06222L10.2994 2.9C9.84433 1.98 9.46931 1.38444 9.17661 1.11778C8.8839 0.853333 8.44028 0.688889 7.84573 0.628889C7.79085 0.628889 7.74054 0.597778 7.69024 0.533333C7.63993 0.471111 7.61478 0.397778 7.61478 0.315556C7.61478 0.104444 7.66737 0 7.77713 0C8.29393 0 8.76728 0.0222221 9.19947 0.0666665C9.61566 0.113333 10.0593 0.135556 10.5303 0.135556C10.9923 0.135556 11.4816 0.113333 11.9984 0.0666665C12.5312 0.0222221 13.0549 0 13.5717 0C13.6952 0 13.7569 0.104444 13.7569 0.315556C13.7569 0.524444 13.7203 0.628889 13.6426 0.628889C12.609 0.697778 12.0922 0.982222 12.0922 1.48444C12.0922 1.70889 12.2111 2.05778 12.4512 2.52889L14.1274 5.83556L15.7944 2.81111C16.0253 2.38444 16.142 2.02444 16.142 1.73111C16.142 1.04222 15.6252 0.675556 14.5916 0.628889C14.4978 0.628889 14.4521 0.524444 14.4521 0.315556C14.4521 0.24 14.4749 0.168889 14.5207 0.102222C14.5687 0.0333331 14.6144 0 14.6602 0C15.0306 0 15.4857 0.0222221 16.0253 0.0666665C16.5421 0.113333 16.9675 0.135556 17.299 0.135556C17.5369 0.135556 17.889 0.115556 18.3509 0.0777779C18.9363 0.0266668 19.428 0 19.8213 0C19.9128 0 19.9585 0.0888887 19.9585 0.268889C19.9585 0.508889 19.8739 0.628889 19.7047 0.628889C19.1033 0.688889 18.6185 0.851111 18.2526 1.11333C17.8867 1.37556 17.4294 1.97111 16.8829 2.9L14.6602 6.89333L17.6695 12.8511L22.1126 2.81111C22.2658 2.44444 22.3435 2.10667 22.3435 1.8C22.3435 1.06444 21.8267 0.675556 20.7931 0.628889C20.6994 0.628889 20.6537 0.524444 20.6537 0.315556C20.6537 0.104444 20.7223 0 20.8617 0C21.239 0 21.6872 0.0222221 22.204 0.0666665C22.682 0.113333 23.0844 0.135556 23.4069 0.135556C23.7476 0.135556 24.1409 0.113333 24.5868 0.0666665C25.051 0.0222221 25.4672 0 25.8376 0C25.9451 0 26 0.0888887 26 0.268889Z" fill="#1B1F23" fill-opacity="0.2"/>
</svg>
