<?xml version="1.0" encoding="UTF-8" standalone="no"?>
<svg
   xmlns:dc="http://purl.org/dc/elements/1.1/"
   xmlns:cc="http://creativecommons.org/ns#"
   xmlns:rdf="http://www.w3.org/1999/02/22-rdf-syntax-ns#"
   xmlns:svg="http://www.w3.org/2000/svg"
   xmlns="http://www.w3.org/2000/svg"
   xmlns:sodipodi="http://sodipodi.sourceforge.net/DTD/sodipodi-0.dtd"
   xmlns:inkscape="http://www.inkscape.org/namespaces/inkscape"
   width="256.96857"
   height="185.53313"
   viewBox="0 0 256.96857 185.53313"
   version="1.1"
   id="svg17"
   sodipodi:docname="icon-language.svg"
   style="fill:none"
   inkscape:version="0.92.3 (2405546, 2018-03-11)">
  <metadata
     id="metadata23">
    <rdf:RDF>
      <cc:Work
         rdf:about="">
        <dc:format>image/svg+xml</dc:format>
        <dc:type
           rdf:resource="http://purl.org/dc/dcmitype/StillImage" />
        <dc:title></dc:title>
      </cc:Work>
    </rdf:RDF>
  </metadata>
  <defs
     id="defs21" />
  <sodipodi:namedview
     pagecolor="#ffffff"
     bordercolor="#666666"
     borderopacity="1"
     objecttolerance="10"
     gridtolerance="10"
     guidetolerance="10"
     inkscape:pageopacity="0"
     inkscape:pageshadow="2"
     inkscape:window-width="1319"
     inkscape:window-height="700"
     id="namedview19"
     showgrid="false"
     fit-margin-top="0"
     fit-margin-left="0"
     fit-margin-right="0"
     fit-margin-bottom="0"
     inkscape:zoom="0.68661093"
     inkscape:cx="165.18922"
     inkscape:cy="-115.9565"
     inkscape:window-x="209"
     inkscape:window-y="186"
     inkscape:window-maximized="0"
     inkscape:current-layer="g15" />
  <mask
     id="mask0"
     mask-type="alpha"
     maskUnits="userSpaceOnUse"
     x="-60"
     y="43"
     width="1440"
     height="128">
    <rect
       x="-60"
       y="43"
       width="1440"
       height="128"
       id="rect2"
       style="fill:#206ae2" />
  </mask>
  <g
     mask="url(#mask0)"
     id="g15"
     transform="translate(-1037,-18.679613)">
    <path
       d="m 1124,111.964 c -0.01,2.197 1.77,3.98 3.99,3.984 L 1148,116 c 2.21,0.008 4,-1.776 4,-3.96 0.01,-2.205 -1.78,-3.981 -3.98,-3.988 L 1128.01,108 c -2.21,0 -4.01,1.768 -4.01,3.964 z"
       id="path5"
       inkscape:connector-curvature="0"
       style="fill:#ffffff;fill-opacity:0.15" />
    <path
       d="m 1130.39,90.2053 c -0.95,1.9261 -0.1,4.2263 1.89,5.1448 l 18.02,8.2789 c 1.99,0.91 4.37,0.088 5.31,-1.838 0.95,-1.9215 0.1,-4.2217 -1.89,-5.1444 l -18.02,-8.2747 c -1.99,-0.9105 -4.37,-0.0923 -5.31,1.8334 z"
       id="path7"
       inkscape:connector-curvature="0"
       style="fill:#ffffff;fill-opacity:0.15" />
    <path
       d="m 1130.36,133.768 c -0.89,-1.944 -0.07,-4.253 1.84,-5.161 l 17.34,-8.235 c 1.92,-0.916 4.2,-0.082 5.1,1.859 0.89,1.944 0.07,4.253 -1.85,5.161 l -17.33,8.238 c -1.92,0.912 -4.2,0.078 -5.1,-1.862 z"
       id="path9"
       inkscape:connector-curvature="0"
       style="fill:#ffffff;fill-opacity:0.15" />
    <path
       d="m 1244.14,187.141 c 0.13,0.111 0.29,0.239 0.46,0.382 0.7,0.57 1.72,1.382 2.97,2.333 2.53,1.908 6,4.349 9.82,6.528 3.85,2.194 7.9,4.036 11.61,4.864 3.74,0.835 6.67,0.547 8.77,-0.85 z m 0,0 c -0.1,-0.268 -0.23,-0.6 -0.38,-0.989 -0.44,-1.114 -1.08,-2.695 -1.9,-4.586 -1.63,-3.772 -4,-8.811 -6.91,-13.82 -2.89,-4.979 -6.4,-10.086 -10.37,-13.878 -3.91,-3.737 -8.76,-6.661 -14.22,-6.115 l -0.07,0.008 -0.07,0.01 c -5.54,0.816 -12.32,0.687 -18.21,-0.147 -2.94,-0.416 -5.58,-0.996 -7.68,-1.684 -2.2,-0.719 -3.46,-1.445 -3.99,-1.95 v -0.002 c -0.74,-0.713 -0.86,-1.267 -0.57,-4.473 l 0.01,-0.122 c 0.22,-2.403 0.5,-5.573 -0.22,-9.647 4.19,-0.816 7.74,-2.325 10.49,-4.524 3.54,-2.842 5.57,-6.706 5.92,-11.158 l 0.3,-3.716 -3.71,0.36 c -5.57,0.541 -9.21,-0.1 -11.74,-1.162 -2.09,-0.879 -3.61,-2.125 -4.93,-3.586 0.11,-2.664 0.32,-6.8485 0.51,-9.7824 l 0.17,-2.5098 -2.42,-0.6993 c -4.47,-1.2941 -7.36,-4.099 -8.54,-6.4459 -0.61,-1.2001 -0.63,-2.0064 -0.56,-2.3407 0,-0.0103 0,-0.0202 0,-0.0298 0.02,-0.1064 0.04,-0.1732 0.35,-0.2665 3.67,-1.0822 7.05,-3.044 9.76,-5.1197 2.68,-2.0558 4.92,-4.3858 6.17,-6.3806 l 0.01,-0.002 c 1.06,-1.6887 1.64,-3.2553 1.82,-4.9605 0.16,-1.5846 -0.06,-3.1259 -0.27,-4.5441 -0.01,-0.1157 -0.03,-0.2331 -0.05,-0.3524 -0.41,-2.8105 -0.98,-6.6619 -0.34,-13.6175 z m 47.84,1.758 c -0.46,0.489 -1.03,1.075 -1.74,1.747 -2.43,2.334 -6.41,5.719 -12.47,9.752 z m 0,0 c -0.08,-0.105 -0.16,-0.214 -0.25,-0.327 -1.13,-1.517 -2.72,-3.709 -4.56,-6.428 -3.68,-5.43 -8.39,-13.003 -12.46,-21.532 -4.06,-8.508 -7.56,-18.109 -8.72,-27.571 -1.15,-9.48 0.03,-19.062 5.65,-27.187 10.76,-15.5448 13.23,-31.1069 9.78,-44.5431 -3.46,-13.475 -12.96,-25.1659 -26.81,-32.7398 -10.79,-5.8986 -21.23,-7.928 -31.22,-7.2756 -11.08,0.7233 -21.14,4.6469 -28.54,9.9844 -7.49,5.4031 -11.83,11.9165 -12.35,17.6287 z"
       id="path11"
       inkscape:connector-curvature="0"
       style="stroke:#ffffff;stroke-width:5;stroke-opacity:0.3" />
    <path
       d="m 1098.01,138.398 c 0.02,-0.014 0.05,-0.028 0.07,-0.043 4.33,-2.707 6.92,-7.389 6.92,-12.525 V 80.765 c 0,-5.4342 -2.82,-10.2525 -7.53,-12.8885 -2.7,-1.5078 -5.67,-2.1017 -8.58,-1.8006 -4.04,-0.0127 -14.62,-0.0184 -17.71,-0.0184 -3,0 -5.71,0.7486 -8.08,2.2257 l -19.15,11.4973 c -0.02,0.0114 -0.04,0.0233 -0.06,0.0351 -4.31,2.7101 -6.89,7.3855 -6.89,12.5059 v 45.0535 c 0,3.936 1.46,7.566 4.11,10.219 2.66,2.665 6.4,4.19 10.27,4.19 0.04,0 0.08,0 0.13,0 0.7,0 4.76,0.067 9.25,0.145 v 3.74 c -12.27,1.92 -19.84,6.93 -19.84,13.202 0,0.296 0,3.671 0,6.137 0,9.186 15.25,13.992 30.3,13.992 15.06,0 30.3,-4.806 30.3,-13.992 0,-2.538 0,-5.793 0,-6.137 0,-6.35 -7.56,-11.317 -19.91,-13.215 v -7.584 z m -3.71,-64.7727 c 2.61,1.4605 4.17,4.1294 4.17,7.1397 v 0.5334 l -7.82,4.714 c -1.54,0.9328 -2.05,2.9512 -1.12,4.5094 0.61,1.0291 1.69,1.5989 2.8,1.5989 0.57,0 1.15,-0.1508 1.68,-0.4668 l 4.46,-2.6925 v 3.5455 l -7.82,4.714 c -1.54,0.9327 -2.05,2.9511 -1.12,4.5091 0.61,1.029 1.69,1.599 2.8,1.599 0.57,0 1.15,-0.151 1.68,-0.467 l 4.46,-2.692 v 3.546 l -7.82,4.713 c -1.54,0.933 -2.05,2.952 -1.12,4.509 0.61,1.03 1.69,1.6 2.8,1.6 0.57,0 1.15,-0.151 1.68,-0.468 l 4.46,-2.692 v 14.452 c 0,2.833 -1.42,5.415 -3.8,6.918 l -19.53,11.522 c -0.02,0.014 -0.05,0.028 -0.07,0.043 -1.2,0.749 -2.52,1.157 -3.86,1.228 -0.31,-0.006 -0.69,-0.013 -1.12,-0.021 -1.11,-0.101 -2.21,-0.434 -3.24,-1.011 -2.6,-1.461 -4.16,-4.129 -4.16,-7.134 v -4.871 l 15.53,-9.192 c 1.55,-0.92 2.07,-2.934 1.16,-4.5 -0.91,-1.565 -2.91,-2.089 -4.47,-1.168 l -12.22,7.234 v -3.584 l 15.53,-9.192 c 1.55,-0.919 2.07,-2.934 1.16,-4.499 -0.91,-1.565 -2.91,-2.088 -4.47,-1.169 l -12.22,7.234 v -3.583 l 15.53,-9.191 c 1.55,-0.9192 2.07,-2.9337 1.16,-4.4993 -0.91,-1.5652 -2.91,-2.0886 -4.47,-1.1685 l -12.22,7.2338 V 92.3215 c 0,-2.8232 1.41,-5.4013 3.78,-6.906 L 1086,73.8835 c 0.03,-0.0149 0.05,-0.0307 0.08,-0.0465 1.02,-0.646 2.14,-1.0383 3.28,-1.1847 0.08,4e-4 0.17,4e-4 0.24,9e-4 v -0.032 c 1.59,-0.1547 3.22,0.1779 4.7,1.0041 z m -38.14,41.9447 h -12.63 v -4.634 h 12.63 z m -12.63,6.575 h 12.63 v 4.634 h -12.63 z m 3.79,-36.7348 19.15,-11.4943 c 0.02,-0.0114 0.04,-0.0232 0.06,-0.035 1.34,-0.8403 2.86,-1.2488 4.65,-1.2488 0.86,0 2.31,5e-4 4.03,0.0014 l -12.08,7.1352 c -0.03,0.0149 -0.05,0.0307 -0.08,0.0465 -4.31,2.71 -6.89,7.3855 -6.89,12.5058 v 12.04 h -12.63 V 92.3215 c 0,-2.8263 1.41,-5.4079 3.79,-6.9113 z m 4.16,59.7988 c -0.04,0 -0.07,0 -0.1,0 -2.16,0 -4.22,-0.829 -5.67,-2.276 -1.43,-1.431 -2.18,-3.353 -2.18,-5.558 v -4.022 h 12.63 v 4.022 c 0,2.902 0.81,5.625 2.28,7.938 -3.43,-0.058 -6.32,-0.104 -6.96,-0.104 z m 20.59,6.87 c 1.02,-0.091 2.03,-0.293 3.01,-0.604 v 12.216 c 0,2.165 -1.75,3.927 -3.89,3.927 -2.15,0 -3.9,-1.761 -3.9,-3.927 v -11.646 c 0.82,0.015 4.78,0.034 4.78,0.034 z m 22.92,16.793 c 0,0.118 -0.03,0.282 -0.08,0.448 -0.93,2.678 -9.75,6.969 -23.69,6.969 -14.1,0 -23.01,-4.393 -23.76,-7.063 -0.02,-0.18 -0.01,-0.339 -0.01,-0.354 0,-1.546 3.94,-4.892 13.31,-6.54 v 1.36 c 0,5.79 4.68,10.501 10.43,10.501 5.74,0 10.42,-4.711 10.42,-10.501 v -1.374 c 9.3,1.624 13.38,5.001 13.38,6.554 z"
       id="path13"
       inkscape:connector-curvature="0"
       style="fill:#ffffff;fill-opacity:0.3" />
  </g>
</svg>
