<svg width="221" height="128" viewBox="0 0 221 128" fill="none" xmlns="http://www.w3.org/2000/svg">
<path fill-rule="evenodd" clip-rule="evenodd" d="M112.378 85.2906C101.071 81.4111 90.2746 76.1797 80.2228 69.7101C95.7104 53.0756 106.436 32.5793 111.273 10.3718H132.6V-4.32468H80.7753C80.1932 -6.43932 79.4544 -8.50769 78.5653 -10.5127C75.9133 -17.6951 72.9298 -26.4246 72.9298 -26.4246L56.6863 -20.8996C56.6863 -20.8996 61.1063 -11.0652 63.3163 -4.32468H0V10.3718H23.7574C28.5996 32.6705 39.4963 53.2023 55.2498 69.7101C38.177 80.3197 19.5284 88.1521 0 92.915C4.12532 98.9557 7.32981 104.039 9.61347 108.164C29.92 101.356 49.2969 92.0388 67.2943 80.4286C79.5215 88.5949 92.7409 95.1675 106.632 99.987L112.378 85.2906ZM205.088 150.375H221L170.612 23.4106H149.728L99.4503 150.154H114.699C116.313 150.203 117.888 149.652 119.119 148.607C120.188 147.717 121.023 146.579 121.55 145.292L132.6 117.225H187.85L198.127 145.623C198.685 146.953 199.557 148.128 200.668 149.049C201.939 149.997 203.505 150.467 205.088 150.375ZM164.534 56.4498L181.993 102.749L138.566 102.86L156.025 56.5603L158.125 50.3723C158.861 48.015 159.561 45.4735 160.224 42.7478C161.404 47.392 162.843 51.9664 164.534 56.4498ZM94.3665 10.3716H40.1112C44.3216 29.0101 53.7498 46.0653 67.2941 59.544C81.3512 46.4753 90.841 29.2386 94.3665 10.3716Z" fill="white" fill-opacity="0.3"/>
</svg>
