<svg width="321" height="257" viewBox="0 0 321 257" fill="none" xmlns="http://www.w3.org/2000/svg">
<path fill-rule="evenodd" clip-rule="evenodd" d="M163.228 162.341C146.805 156.706 131.123 149.108 116.523 139.711C139.018 115.549 154.597 85.7784 161.623 53.5221H192.6V32.1756H117.325C116.479 29.1041 115.407 26.0998 114.115 23.1876C110.263 12.7551 105.93 0.0756226 105.93 0.0756226L82.336 8.10062C82.336 8.10062 88.756 22.3851 91.966 32.1756H-0.000488281V53.5221H34.507C41.5402 85.9108 57.3677 115.733 80.2495 139.711C55.4514 155.121 28.3644 166.498 -0.000488281 173.416C5.99151 182.19 10.646 189.573 13.963 195.565C43.4582 185.676 71.6029 172.143 97.744 155.279C115.504 167.141 134.705 176.687 154.882 183.688L163.228 162.341ZM297.888 256.875H321L247.812 72.4609H217.478L144.45 256.554H166.599C168.944 256.626 171.231 255.826 173.019 254.307C174.572 253.015 175.785 251.362 176.55 249.492L192.6 208.725H272.85L287.777 249.974C288.588 251.906 289.855 253.613 291.468 254.949C293.315 256.327 295.588 257.009 297.888 256.875ZM238.984 120.45L264.343 187.7L201.266 187.86L226.625 120.611L229.675 111.623C230.745 108.199 231.761 104.507 232.724 100.548C234.438 107.294 236.527 113.938 238.984 120.45ZM137.066 53.5218H58.2606C64.3762 80.5941 78.0707 105.367 97.7436 124.944C118.161 105.962 131.945 80.926 137.066 53.5218Z" fill="white"/>
</svg>
