<?xml version="1.0" encoding="UTF-8" standalone="no"?>
<svg
   xmlns:dc="http://purl.org/dc/elements/1.1/"
   xmlns:cc="http://creativecommons.org/ns#"
   xmlns:rdf="http://www.w3.org/1999/02/22-rdf-syntax-ns#"
   xmlns:svg="http://www.w3.org/2000/svg"
   xmlns="http://www.w3.org/2000/svg"
   xmlns:sodipodi="http://sodipodi.sourceforge.net/DTD/sodipodi-0.dtd"
   xmlns:inkscape="http://www.inkscape.org/namespaces/inkscape"
   width="496"
   height="270"
   viewBox="0 0 496 270"
   fill="none"
   version="1.1"
   id="svg45"
   sodipodi:docname="graph.svg"
   inkscape:version="0.92.3 (2405546, 2018-03-11)">
  <metadata
     id="metadata49">
    <rdf:RDF>
      <cc:Work
         rdf:about="">
        <dc:format>image/svg+xml</dc:format>
        <dc:type
           rdf:resource="http://purl.org/dc/dcmitype/StillImage" />
      </cc:Work>
    </rdf:RDF>
  </metadata>
  <sodipodi:namedview
     pagecolor="#ffffff"
     bordercolor="#666666"
     borderopacity="1"
     objecttolerance="10"
     gridtolerance="10"
     guidetolerance="10"
     inkscape:pageopacity="0"
     inkscape:pageshadow="2"
     inkscape:window-width="1253"
     inkscape:window-height="757"
     id="namedview47"
     showgrid="false"
     inkscape:zoom="0.9551644"
     inkscape:cx="249.09602"
     inkscape:cy="97.40513"
     inkscape:window-x="1873"
     inkscape:window-y="163"
     inkscape:window-maximized="0"
     inkscape:current-layer="svg45" />
  <path
     d="M131.551 1V266.954"
     stroke="white"
     stroke-opacity="0.1"
     stroke-width="0.5"
     stroke-linecap="square"
     id="path2" />
  <path
     d="M272.815 3.04578V269"
     stroke="white"
     stroke-opacity="0.2"
     stroke-width="0.5"
     stroke-linecap="square"
     id="path4" />
  <path
     d="M414.08 1V266.954"
     stroke="white"
     stroke-opacity="0.3"
     stroke-width="0.5"
     stroke-linecap="square"
     id="path6" />
  <path
     d="M48 236.092H495.908"
     stroke="url(#paint0_linear)"
     stroke-width="0.5"
     stroke-linecap="square"
     id="path8" />
  <path
     d="M48 64.29H495.908"
     stroke="url(#paint1_linear)"
     stroke-width="0.5"
     stroke-linecap="square"
     id="path10" />
  <path
     d="M48 179.092H495.908"
     stroke="url(#paint2_linear)"
     stroke-width="0.5"
     stroke-linecap="square"
     id="path12" />
  <path
     d="M48 122.092H495.908"
     stroke="url(#paint3_linear)"
     stroke-width="0.5"
     stroke-linecap="square"
     id="path14" />
  <path
     d="M465 53C458.609 63.3805 465 175.279 329.47 175.279C270.594 182.913 266.547 228.871 217.928 228.645C129.858 228.871 153.686 232 103 232"
     stroke="url(#paint4_linear)"
     stroke-width="2"
     stroke-linecap="round"
     id="path16" />
  <defs
     id="defs43">
    <linearGradient
       id="paint0_linear"
       x1="495.986"
       y1="231.802"
       x2="48"
       y2="231.802"
       gradientUnits="userSpaceOnUse">
      <stop
         stop-color="white"
         stop-opacity="0.41"
         id="stop18" />
      <stop
         offset="1"
         stop-color="#206AE2"
         id="stop20" />
    </linearGradient>
    <linearGradient
       id="paint1_linear"
       x1="495.986"
       y1="60.0006"
       x2="48"
       y2="60.0006"
       gradientUnits="userSpaceOnUse">
      <stop
         stop-color="white"
         stop-opacity="0.41"
         id="stop23" />
      <stop
         offset="1"
         stop-color="#206AE2"
         id="stop25" />
    </linearGradient>
    <linearGradient
       id="paint2_linear"
       x1="495.986"
       y1="174.802"
       x2="48"
       y2="174.802"
       gradientUnits="userSpaceOnUse">
      <stop
         stop-color="white"
         stop-opacity="0.41"
         id="stop28" />
      <stop
         offset="1"
         stop-color="#206AE2"
         id="stop30" />
    </linearGradient>
    <linearGradient
       id="paint3_linear"
       x1="495.986"
       y1="117.802"
       x2="48"
       y2="117.802"
       gradientUnits="userSpaceOnUse">
      <stop
         stop-color="white"
         stop-opacity="0.41"
         id="stop33" />
      <stop
         offset="1"
         stop-color="#206AE2"
         id="stop35" />
    </linearGradient>
    <linearGradient
       id="paint4_linear"
       x1="284"
       y1="-36.5"
       x2="426.243"
       y2="251.164"
       gradientUnits="userSpaceOnUse">
      <stop
         stop-color="#74E5FD"
         id="stop38" />
      <stop
         offset="1"
         stop-color="#00BD44"
         id="stop40" />
    </linearGradient>
  </defs>
  <g
     style="fill:none"
     id="g869"
     transform="translate(-31.484941,83.684435)">
    <path
       id="path858"
       d="m 0.419922,204.847 c 0,0 24.083078,-8.312 52.509978,-17.644 28.4269,-9.333 31.5994,-27.893 50.0091,-32.676 18.41,-4.782 19.677,17.615 53.135,5.882 33.459,-11.733 23.733,-37.408 45.634,-40.518 21.902,-3.109 35.102,25.415 55.636,26.141 20.534,0.725 80.29,-107.4688 95.018,-116.9782 14.727,-9.5095 39.985,35.8645 60.636,34.6359 C 433.649,62.461 452.53,0.0893087 484.887,2.25996 517.244,4.4306 517.412,14.5155 546.774,14.0231 576.135,13.5307 590.355,2.9974 601.784,0.299433 613.213,-2.39853 623.663,14.0231 623.663,14.0231 l 11.878,26.7938 V 240.858 H 0.419922 Z"
       inkscape:connector-curvature="0"
       style="clip-rule:evenodd;opacity:0.1;fill:#ffffff;fill-rule:evenodd" />
  </g>
</svg>
