<svg width="219" height="219" viewBox="0 0 219 219" fill="none" xmlns="http://www.w3.org/2000/svg">
<path d="M37.9312 175.66C35.8069 175.66 33.7045 175.594 31.5802 175.441C27.7696 175.156 24.616 172.375 23.8933 168.63C23.1487 164.885 25.0321 161.118 28.4704 159.41C34.4491 156.476 39.4204 152.599 43.2967 147.869C18.0241 135.189 2.19043 112.566 2.19043 88.1475C2.19043 49.3626 41.1943 17.8047 89.1772 17.8047C137.16 17.8047 176.164 49.3626 176.164 88.1475C176.164 126.954 137.16 158.512 89.1772 158.512C88.1917 158.512 87.2062 158.49 86.2426 158.447C73.9129 169.594 56.9404 175.66 37.9312 175.66ZM89.1772 34.7115C50.5237 34.7115 19.0972 58.692 19.0972 88.1475C19.0972 108.339 34.6024 127.151 58.5829 136.152C60.7948 137.006 62.5906 138.736 63.4666 140.948C64.3645 143.182 64.255 145.679 63.1819 147.803L62.7877 148.657C62.3278 149.643 61.846 150.628 61.2985 151.548C60.532 152.84 59.6998 154.11 58.8238 155.337C65.8975 152.84 72.0295 148.964 76.9351 143.927C78.6652 142.153 81.0961 141.299 83.527 141.386C85.3885 141.496 87.2719 141.627 89.1772 141.627C127.831 141.627 159.257 117.647 159.257 88.1694C159.257 58.7139 127.809 34.7115 89.1772 34.7115Z" fill="white" fill-opacity="0.3"/>
<path d="M186.808 201.195C175.858 201.195 165.543 198.261 156.958 192.589C156.432 192.72 155.907 192.808 155.381 192.917C122.465 198.918 92.9109 188.879 81.501 162.38C87.501 157.5 85.501 158.7 91.5005 158.5C94.5005 158.3 97.5005 158.4 98.5005 158C106.823 177.36 127.108 180.872 152.381 176.273C153.848 176.01 155.272 175.66 156.673 175.31C159.214 174.653 161.907 175.244 163.988 176.865C167.163 179.383 170.799 181.266 174.784 182.493C174.784 182.493 174.763 182.471 174.741 182.471C174.106 181.639 173.602 180.872 173.098 180.084C171.806 178.179 171.127 175.507 171.631 173.273C172.091 171.039 173.251 168.74 175.201 167.513C192.567 156.76 202.094 138.934 199.444 122.114C197.276 108.339 190.785 98.2318 176.025 92.2312C176.025 89.0914 176.496 87.1291 175.829 82.4194C175.829 79.2796 173.474 70.6452 174.259 73.0001C194.319 81.1469 213.11 99.9736 216.176 119.486C219.417 140.16 210.109 161.578 192.086 176.208C195.436 179.12 199.4 181.332 203.89 182.756C207.459 183.916 209.868 187.289 209.781 191.056C209.671 194.801 207.087 198.042 203.452 199.005C197.823 200.473 192.239 201.195 186.808 201.195Z" fill="white" fill-opacity="0.3"/>
<path d="M55.6046 78.2706C49.5383 78.2706 44.5889 83.1981 44.5889 89.2863C44.5889 95.3745 49.5164 100.324 55.6046 100.324C61.6928 100.324 66.6422 95.3964 66.6422 89.2863C66.6422 83.22 61.6928 78.2706 55.6046 78.2706Z" fill="white" fill-opacity="0.3"/>
<path d="M89.3966 78.2706C83.3084 78.2706 78.3809 83.1981 78.3809 89.2863C78.3809 95.3745 83.2865 100.324 89.3966 100.324C95.5067 100.324 100.434 95.3964 100.434 89.2863C100.434 83.22 95.5067 78.2706 89.3966 78.2706Z" fill="white" fill-opacity="0.3"/>
<path d="M123.232 78.2706C117.143 78.2706 112.216 83.1981 112.216 89.2863C112.216 95.3745 117.143 100.324 123.232 100.324C129.32 100.324 134.269 95.3964 134.269 89.2863C134.247 83.22 129.32 78.2706 123.232 78.2706Z" fill="white" fill-opacity="0.3"/>
</svg>
