<svg width="345" height="238" viewBox="0 0 345 238" fill="none" xmlns="http://www.w3.org/2000/svg">
<path d="M193.124 0.66957H245.252C247.229 4.37132 247.229 8.81504 245.252 12.5168C227.026 15.433 220.464 29.1029 212.262 45.8713L186.745 95.9941L229.577 190.954H230.853L295.01 43.3196C303.03 23.8172 302.301 14.3394 280.611 12.3345C278.602 8.64112 278.602 4.18071 280.611 0.487305H343.493C345.502 4.18071 345.502 8.64112 343.493 12.3345C321.439 15.2508 317.611 28.9206 310.503 45.689L230.853 229.412C228.484 234.88 226.479 237.614 222.833 237.614C219.188 237.614 216.819 234.698 215.178 229.412L169.977 124.974L120.401 229.412C118.396 234.88 116.026 237.614 112.381 237.614C108.736 237.614 106.731 234.698 104.726 229.412L31.8198 45.5067C21.4307 19.9896 20.8839 14.5217 1.74607 12.6991C-0.44477 9.02126 -0.582588 4.47327 1.38154 0.66957H72.6471C74.6567 4.36298 74.6567 8.82338 72.6471 12.5168C51.5044 14.8862 50.5931 20.7187 59.1595 41.3146L121.312 190.59H122.223L159.587 110.029L131.883 45.3245C120.765 19.8074 117.667 14.704 103.814 12.6991C101.838 8.9973 101.838 4.55358 103.814 0.851835H164.326C166.336 4.54524 166.336 9.00565 164.326 12.6991C150.839 14.8862 151.568 20.901 160.863 41.4969L176.72 77.9499L178.179 79.5903L196.405 43.1373C206.794 22.3591 208.07 14.3394 193.671 12.1523C191.648 8.63683 191.444 4.36135 193.124 0.66957Z" fill="white"/>
</svg>
